<svg version="1.1" id="erd-logo" xmlns="http://www.w3.org/2000/svg" xmlns:xlink="http://www.w3.org/1999/xlink" viewBox="0 0 80 46.3" xml:space="preserve">
    <g>
      <g>
        <g>
          <g>
            <g>
              <g>
                <path class="st0" d="M27.5,25v2.8h-7.8v5.1H27v2.7h-7.3v5.5h8v2.8H16.7V25H27.5z"></path>
              </g>
            </g>
          </g>
          <g>
            <g>
              <g>
                <path class="st0" d="M36.4,36.3H33v7.5h-3V25h6.3c0.9,0,1.6,0.1,2.3,0.4c0.7,0.3,1.2,0.6,1.7,1.1c0.5,0.5,0.8,1,1,1.6
                  c0.2,0.6,0.4,1.3,0.4,2.1v1c0,1-0.2,1.9-0.6,2.7c-0.4,0.8-1.1,1.4-1.9,1.8c0.6,1.4,1.1,2.7,1.6,4.1c0.5,1.3,1.1,2.7,1.6,4.1
                  h-3.2L36.4,36.3z M33,27.8v5.7h2.7c1.1,0,1.9-0.2,2.4-0.7c0.5-0.5,0.7-1,0.7-1.7v-0.8c0-0.7-0.2-1.3-0.6-1.8
                  C37.7,28,37,27.8,36,27.8H33z"></path>
              </g>
            </g>
          </g>
          <g>
            <g>
              <g>
                <path class="st0" d="M50.3,25c2.5,0,4.3,0.7,5.5,2.1c1.2,1.4,1.8,3.4,1.8,6v2.7c0,1.3-0.1,2.5-0.4,3.5c-0.3,1-0.7,1.8-1.3,2.5
                  c-0.6,0.7-1.3,1.2-2.2,1.6c-0.9,0.4-2,0.5-3.3,0.5h-5.9V25H50.3z M47.4,41h2.5c0.7,0,1.4-0.1,2-0.3c0.6-0.2,1.1-0.5,1.5-0.9
                  c0.4-0.4,0.7-1,0.9-1.7c0.2-0.7,0.3-1.5,0.3-2.5v-2.4c0-2-0.4-3.4-1.2-4.2c-0.8-0.8-1.9-1.2-3.5-1.2h-2.5V41z"></path>
              </g>
            </g>
          </g>
        </g>
        <g>
          <g>
            <g>
              <g>
                <g>
                  <path class="st1" d="M12.3,43.8C5.5,43.8,0,38.3,0,31.6c0-6.8,5.5-12.3,12.3-12.3c0,0,0,0,0,0C13,12.8,18.5,7.8,25.1,7.8
                    c1.7,0,3.4,0.3,5,1C34,3.3,40.2,0,47.1,0C58,0,67,8.5,67.7,19.3C74.5,19.2,80,24.7,80,31.5c0,6.7-5.5,12.2-12.2,12.2
                    c-0.8,0-1.4-0.6-1.4-1.4c0-0.8,0.6-1.4,1.4-1.4c5.1,0,9.3-4.2,9.3-9.3c0-5.1-4.2-9.3-9.3-9.3c-0.4,0-0.9,0-1.3,0.1L65,22.4
                    v-1.7c0-9.9-8-17.9-17.9-17.9c-6.3,0-12,3.2-15.3,8.6l-0.7,1.2l-1.2-0.7c-1.5-0.8-3.2-1.2-4.9-1.2c-5.5,0-10.1,4.5-10.1,10.1
                    v1.6l-1.6-0.1C7.7,21.5,2.8,26,2.8,31.6c0,5.2,4.2,9.4,9.4,9.4c0.8,0,1.4,0.6,1.4,1.4S13.1,43.8,12.3,43.8z"></path>
                </g>
              </g>
            </g>
            <g>
              <g>
                <g>
                  <path class="st2" d="M67.8,42.4"></path>
                </g>
              </g>
            </g>
            <g>
              <g>
                <g>
                  <path class="st2" d="M54.2,42.2"></path>
                </g>
              </g>
            </g>
            <g>
              <g>
                <g>
                  <path class="st2" d="M67.8,42.2"></path>
                </g>
              </g>
            </g>
            <g>
              <g>
                <g>
                  <path class="st1" d="M17.5,43.8h-5.2c-0.4,0-0.7-0.6-0.7-1.4c0-0.8,0.3-1.4,0.7-1.4h5.2c0.4,0,0.7,0.6,0.7,1.4
                    C18.2,43.2,17.9,43.8,17.5,43.8z"></path>
                </g>
              </g>
            </g>
          </g>
        </g>
      </g>
      <g>
        <g>
          <g>
            <circle class="st1" cx="67.5" cy="42.1" r="4.2"></circle>
          </g>
        </g>
      </g>
    </g>
  </svg>